<mxfile host="Electron" agent="Mozilla/5.0 (X11; Linux x86_64) AppleWebKit/537.36 (KHTML, like Gecko) draw.io/24.7.17 Chrome/128.0.6613.36 Electron/32.0.1 Safari/537.36" version="24.7.17">
  <diagram name="Страница — 1" id="Tu9JiJ1t_465RmYlX4aC">
    <mxGraphModel dx="1233" dy="776" grid="1" gridSize="10" guides="1" tooltips="1" connect="1" arrows="1" fold="1" page="1" pageScale="1" pageWidth="1169" pageHeight="827" math="0" shadow="0">
      <root>
        <mxCell id="0" />
        <mxCell id="1" parent="0" />
        <mxCell id="D-E0xIuChRY3y0Tv-Ntb-1" value="&lt;h1 style=&quot;margin-top: 0px;&quot;&gt;Template Method&lt;/h1&gt;&lt;p&gt;Class diagram for &quot;Template method&quot; pattern&lt;/p&gt;" style="text;html=1;whiteSpace=wrap;overflow=hidden;rounded=0;" parent="1" vertex="1">
          <mxGeometry x="40" y="20" width="280" height="70" as="geometry" />
        </mxCell>
        <mxCell id="D-E0xIuChRY3y0Tv-Ntb-2" value="AbstractClass" style="swimlane;fontStyle=0;childLayout=stackLayout;horizontal=1;startSize=26;fillColor=none;horizontalStack=0;resizeParent=1;resizeParentMax=0;resizeLast=0;collapsible=1;marginBottom=0;whiteSpace=wrap;html=1;" parent="1" vertex="1">
          <mxGeometry x="390" y="170" width="200" height="104" as="geometry" />
        </mxCell>
        <mxCell id="D-E0xIuChRY3y0Tv-Ntb-3" value="+ TemplateMethod():&amp;nbsp;" style="text;strokeColor=none;fillColor=none;align=left;verticalAlign=top;spacingLeft=4;spacingRight=4;overflow=hidden;rotatable=0;points=[[0,0.5],[1,0.5]];portConstraint=eastwest;whiteSpace=wrap;html=1;" parent="D-E0xIuChRY3y0Tv-Ntb-2" vertex="1">
          <mxGeometry y="26" width="200" height="26" as="geometry" />
        </mxCell>
        <mxCell id="D-E0xIuChRY3y0Tv-Ntb-4" value="# PrimitiveOperation1():" style="text;strokeColor=none;fillColor=none;align=left;verticalAlign=top;spacingLeft=4;spacingRight=4;overflow=hidden;rotatable=0;points=[[0,0.5],[1,0.5]];portConstraint=eastwest;whiteSpace=wrap;html=1;" parent="D-E0xIuChRY3y0Tv-Ntb-2" vertex="1">
          <mxGeometry y="52" width="200" height="26" as="geometry" />
        </mxCell>
        <mxCell id="D-E0xIuChRY3y0Tv-Ntb-6" value="# PrimitiveOperation2():" style="text;strokeColor=none;fillColor=none;align=left;verticalAlign=top;spacingLeft=4;spacingRight=4;overflow=hidden;rotatable=0;points=[[0,0.5],[1,0.5]];portConstraint=eastwest;whiteSpace=wrap;html=1;" parent="D-E0xIuChRY3y0Tv-Ntb-2" vertex="1">
          <mxGeometry y="78" width="200" height="26" as="geometry" />
        </mxCell>
        <mxCell id="D-E0xIuChRY3y0Tv-Ntb-7" value="ConcreteClass" style="swimlane;fontStyle=0;childLayout=stackLayout;horizontal=1;startSize=26;fillColor=none;horizontalStack=0;resizeParent=1;resizeParentMax=0;resizeLast=0;collapsible=1;marginBottom=0;whiteSpace=wrap;html=1;" parent="1" vertex="1">
          <mxGeometry x="683" y="170" width="200" height="104" as="geometry" />
        </mxCell>
        <mxCell id="D-E0xIuChRY3y0Tv-Ntb-10" value="+ TmplateMethod()" style="text;strokeColor=none;fillColor=none;align=left;verticalAlign=top;spacingLeft=4;spacingRight=4;overflow=hidden;rotatable=0;points=[[0,0.5],[1,0.5]];portConstraint=eastwest;whiteSpace=wrap;html=1;" parent="D-E0xIuChRY3y0Tv-Ntb-7" vertex="1">
          <mxGeometry y="26" width="200" height="26" as="geometry" />
        </mxCell>
        <mxCell id="D-E0xIuChRY3y0Tv-Ntb-13" value="# PrimitiveOpertion1()" style="text;strokeColor=none;fillColor=none;align=left;verticalAlign=top;spacingLeft=4;spacingRight=4;overflow=hidden;rotatable=0;points=[[0,0.5],[1,0.5]];portConstraint=eastwest;whiteSpace=wrap;html=1;" parent="D-E0xIuChRY3y0Tv-Ntb-7" vertex="1">
          <mxGeometry y="52" width="200" height="26" as="geometry" />
        </mxCell>
        <mxCell id="D-E0xIuChRY3y0Tv-Ntb-34" value="# PrimitiveOpertion2()" style="text;strokeColor=none;fillColor=none;align=left;verticalAlign=top;spacingLeft=4;spacingRight=4;overflow=hidden;rotatable=0;points=[[0,0.5],[1,0.5]];portConstraint=eastwest;whiteSpace=wrap;html=1;" parent="D-E0xIuChRY3y0Tv-Ntb-7" vertex="1">
          <mxGeometry y="78" width="200" height="26" as="geometry" />
        </mxCell>
        <mxCell id="D-E0xIuChRY3y0Tv-Ntb-11" value="Extends" style="endArrow=block;endSize=16;endFill=0;html=1;rounded=0;exitX=0.5;exitY=0;exitDx=0;exitDy=0;entryX=0.5;entryY=0;entryDx=0;entryDy=0;" parent="1" source="D-E0xIuChRY3y0Tv-Ntb-7" target="D-E0xIuChRY3y0Tv-Ntb-2" edge="1">
          <mxGeometry width="160" relative="1" as="geometry">
            <mxPoint x="620" y="530" as="sourcePoint" />
            <mxPoint x="780" y="530" as="targetPoint" />
            <Array as="points">
              <mxPoint x="783" y="130" />
              <mxPoint x="490" y="130" />
            </Array>
          </mxGeometry>
        </mxCell>
        <mxCell id="D-E0xIuChRY3y0Tv-Ntb-15" value="void TemplateMethod() {&lt;div&gt;PrimitiveOperation();&lt;/div&gt;&lt;div&gt;...&lt;/div&gt;&lt;div&gt;PrimitibeOperation();&lt;/div&gt;&lt;div&gt;}&lt;/div&gt;" style="shape=note;size=20;whiteSpace=wrap;html=1;" parent="1" vertex="1">
          <mxGeometry x="40" y="130" width="230" height="150" as="geometry" />
        </mxCell>
        <mxCell id="D-E0xIuChRY3y0Tv-Ntb-17" style="edgeStyle=orthogonalEdgeStyle;rounded=0;orthogonalLoop=1;jettySize=auto;html=1;entryX=0.21;entryY=-0.019;entryDx=0;entryDy=0;entryPerimeter=0;endArrow=none;endFill=0;" parent="1" source="D-E0xIuChRY3y0Tv-Ntb-15" target="D-E0xIuChRY3y0Tv-Ntb-2" edge="1">
          <mxGeometry relative="1" as="geometry">
            <Array as="points">
              <mxPoint x="330" y="205" />
              <mxPoint x="330" y="110" />
              <mxPoint x="432" y="110" />
            </Array>
          </mxGeometry>
        </mxCell>
        <mxCell id="D-E0xIuChRY3y0Tv-Ntb-18" value="&lt;h1 style=&quot;margin-top: 0px;&quot;&gt;Factory Method&lt;/h1&gt;&lt;p&gt;Class diagram for &quot;Factory method&quot; pattern&lt;/p&gt;" style="text;html=1;whiteSpace=wrap;overflow=hidden;rounded=0;" parent="1" vertex="1">
          <mxGeometry x="40" y="340" width="280" height="70" as="geometry" />
        </mxCell>
        <mxCell id="D-E0xIuChRY3y0Tv-Ntb-19" value="AbstractClassCreator" style="swimlane;fontStyle=0;childLayout=stackLayout;horizontal=1;startSize=26;fillColor=none;horizontalStack=0;resizeParent=1;resizeParentMax=0;resizeLast=0;collapsible=1;marginBottom=0;whiteSpace=wrap;html=1;" parent="1" vertex="1">
          <mxGeometry x="450" y="480" width="200" height="78" as="geometry" />
        </mxCell>
        <mxCell id="D-E0xIuChRY3y0Tv-Ntb-20" value="+ AnOperation():&amp;nbsp;" style="text;strokeColor=none;fillColor=none;align=left;verticalAlign=top;spacingLeft=4;spacingRight=4;overflow=hidden;rotatable=0;points=[[0,0.5],[1,0.5]];portConstraint=eastwest;whiteSpace=wrap;html=1;" parent="D-E0xIuChRY3y0Tv-Ntb-19" vertex="1">
          <mxGeometry y="26" width="200" height="26" as="geometry" />
        </mxCell>
        <mxCell id="D-E0xIuChRY3y0Tv-Ntb-21" value="# FactoryMethod(): Product" style="text;strokeColor=none;fillColor=none;align=left;verticalAlign=top;spacingLeft=4;spacingRight=4;overflow=hidden;rotatable=0;points=[[0,0.5],[1,0.5]];portConstraint=eastwest;whiteSpace=wrap;html=1;" parent="D-E0xIuChRY3y0Tv-Ntb-19" vertex="1">
          <mxGeometry y="52" width="200" height="26" as="geometry" />
        </mxCell>
        <mxCell id="D-E0xIuChRY3y0Tv-Ntb-23" value="Product" style="swimlane;fontStyle=0;childLayout=stackLayout;horizontal=1;startSize=26;fillColor=none;horizontalStack=0;resizeParent=1;resizeParentMax=0;resizeLast=0;collapsible=1;marginBottom=0;whiteSpace=wrap;html=1;" parent="1" vertex="1">
          <mxGeometry x="190" y="470" width="120" height="52" as="geometry" />
        </mxCell>
        <mxCell id="D-E0xIuChRY3y0Tv-Ntb-28" style="edgeStyle=orthogonalEdgeStyle;rounded=0;orthogonalLoop=1;jettySize=auto;html=1;entryX=0.75;entryY=0;entryDx=0;entryDy=0;endArrow=none;endFill=0;" parent="1" source="D-E0xIuChRY3y0Tv-Ntb-27" target="D-E0xIuChRY3y0Tv-Ntb-19" edge="1">
          <mxGeometry relative="1" as="geometry" />
        </mxCell>
        <mxCell id="D-E0xIuChRY3y0Tv-Ntb-27" value="Product AnOperation() {&lt;div&gt;......&lt;br&gt;&lt;div&gt;Product product = FactoryMethod();&lt;/div&gt;&lt;div&gt;......&lt;/div&gt;&lt;div&gt;return product;&lt;/div&gt;&lt;div&gt;}&lt;/div&gt;&lt;/div&gt;" style="shape=note;size=20;whiteSpace=wrap;html=1;" parent="1" vertex="1">
          <mxGeometry x="790" y="421" width="230" height="150" as="geometry" />
        </mxCell>
        <mxCell id="D-E0xIuChRY3y0Tv-Ntb-29" value="Use" style="endArrow=open;endSize=12;dashed=1;html=1;rounded=0;exitX=0;exitY=0.5;exitDx=0;exitDy=0;entryX=1;entryY=0.5;entryDx=0;entryDy=0;" parent="1" source="D-E0xIuChRY3y0Tv-Ntb-21" target="D-E0xIuChRY3y0Tv-Ntb-23" edge="1">
          <mxGeometry width="160" relative="1" as="geometry">
            <mxPoint x="370" y="590" as="sourcePoint" />
            <mxPoint x="530" y="590" as="targetPoint" />
            <Array as="points">
              <mxPoint x="400" y="545" />
              <mxPoint x="400" y="496" />
            </Array>
          </mxGeometry>
        </mxCell>
        <mxCell id="D-E0xIuChRY3y0Tv-Ntb-30" value="ConcreteCreator" style="swimlane;fontStyle=0;childLayout=stackLayout;horizontal=1;startSize=26;fillColor=none;horizontalStack=0;resizeParent=1;resizeParentMax=0;resizeLast=0;collapsible=1;marginBottom=0;whiteSpace=wrap;html=1;" parent="1" vertex="1">
          <mxGeometry x="450" y="630" width="200" height="52" as="geometry" />
        </mxCell>
        <mxCell id="D-E0xIuChRY3y0Tv-Ntb-33" value="# FactoryMethod(): Product" style="text;strokeColor=none;fillColor=none;align=left;verticalAlign=top;spacingLeft=4;spacingRight=4;overflow=hidden;rotatable=0;points=[[0,0.5],[1,0.5]];portConstraint=eastwest;whiteSpace=wrap;html=1;" parent="D-E0xIuChRY3y0Tv-Ntb-30" vertex="1">
          <mxGeometry y="26" width="200" height="26" as="geometry" />
        </mxCell>
        <mxCell id="D-E0xIuChRY3y0Tv-Ntb-35" value="ConcreteProduct #1" style="swimlane;fontStyle=0;childLayout=stackLayout;horizontal=1;startSize=26;fillColor=none;horizontalStack=0;resizeParent=1;resizeParentMax=0;resizeLast=0;collapsible=1;marginBottom=0;whiteSpace=wrap;html=1;" parent="1" vertex="1">
          <mxGeometry x="80" y="570" width="120" height="52" as="geometry" />
        </mxCell>
        <mxCell id="D-E0xIuChRY3y0Tv-Ntb-36" value="ConcreteProduct #2" style="swimlane;fontStyle=0;childLayout=stackLayout;horizontal=1;startSize=26;fillColor=none;horizontalStack=0;resizeParent=1;resizeParentMax=0;resizeLast=0;collapsible=1;marginBottom=0;whiteSpace=wrap;html=1;" parent="1" vertex="1">
          <mxGeometry x="80" y="640" width="120" height="52" as="geometry" />
        </mxCell>
        <mxCell id="D-E0xIuChRY3y0Tv-Ntb-37" value="ConcreteProduct #3" style="swimlane;fontStyle=0;childLayout=stackLayout;horizontal=1;startSize=26;fillColor=none;horizontalStack=0;resizeParent=1;resizeParentMax=0;resizeLast=0;collapsible=1;marginBottom=0;whiteSpace=wrap;html=1;" parent="1" vertex="1">
          <mxGeometry x="80" y="710" width="120" height="52" as="geometry" />
        </mxCell>
        <mxCell id="D-E0xIuChRY3y0Tv-Ntb-38" value="Extends" style="endArrow=block;endSize=16;endFill=0;html=1;rounded=0;exitX=1;exitY=0.25;exitDx=0;exitDy=0;" parent="1" source="D-E0xIuChRY3y0Tv-Ntb-35" edge="1">
          <mxGeometry width="160" relative="1" as="geometry">
            <mxPoint x="220" y="595.58" as="sourcePoint" />
            <mxPoint x="220" y="520" as="targetPoint" />
            <Array as="points">
              <mxPoint x="220" y="583" />
            </Array>
          </mxGeometry>
        </mxCell>
        <mxCell id="D-E0xIuChRY3y0Tv-Ntb-39" value="Extends" style="endArrow=block;endSize=16;endFill=0;html=1;rounded=0;exitX=1;exitY=0.192;exitDx=0;exitDy=0;exitPerimeter=0;" parent="1" source="D-E0xIuChRY3y0Tv-Ntb-36" edge="1">
          <mxGeometry width="160" relative="1" as="geometry">
            <mxPoint x="230" y="603" as="sourcePoint" />
            <mxPoint x="250" y="520" as="targetPoint" />
            <Array as="points">
              <mxPoint x="250" y="650" />
            </Array>
          </mxGeometry>
        </mxCell>
        <mxCell id="D-E0xIuChRY3y0Tv-Ntb-40" value="Extends" style="endArrow=block;endSize=16;endFill=0;html=1;rounded=0;exitX=1;exitY=0.25;exitDx=0;exitDy=0;" parent="1" source="D-E0xIuChRY3y0Tv-Ntb-37" edge="1">
          <mxGeometry width="160" relative="1" as="geometry">
            <mxPoint x="250" y="652" as="sourcePoint" />
            <mxPoint x="280" y="522" as="targetPoint" />
            <Array as="points">
              <mxPoint x="280" y="723" />
            </Array>
          </mxGeometry>
        </mxCell>
        <mxCell id="D-E0xIuChRY3y0Tv-Ntb-41" value="Extends" style="endArrow=block;endSize=16;endFill=0;html=1;rounded=0;entryX=0.5;entryY=1;entryDx=0;entryDy=0;" parent="1" source="D-E0xIuChRY3y0Tv-Ntb-30" target="D-E0xIuChRY3y0Tv-Ntb-19" edge="1">
          <mxGeometry width="160" relative="1" as="geometry">
            <mxPoint x="210" y="733" as="sourcePoint" />
            <mxPoint x="290" y="532" as="targetPoint" />
            <Array as="points" />
          </mxGeometry>
        </mxCell>
        <mxCell id="D-E0xIuChRY3y0Tv-Ntb-43" style="edgeStyle=orthogonalEdgeStyle;rounded=0;orthogonalLoop=1;jettySize=auto;html=1;entryX=1;entryY=0.5;entryDx=0;entryDy=0;endArrow=none;endFill=0;" parent="1" source="D-E0xIuChRY3y0Tv-Ntb-42" target="D-E0xIuChRY3y0Tv-Ntb-30" edge="1">
          <mxGeometry relative="1" as="geometry" />
        </mxCell>
        <mxCell id="D-E0xIuChRY3y0Tv-Ntb-42" value="&lt;div&gt;&lt;div&gt;return ConcreteProduct();&lt;/div&gt;&lt;div&gt;&lt;br&gt;&lt;/div&gt;&lt;/div&gt;" style="shape=note;size=20;whiteSpace=wrap;html=1;" parent="1" vertex="1">
          <mxGeometry x="790" y="622" width="230" height="150" as="geometry" />
        </mxCell>
      </root>
    </mxGraphModel>
  </diagram>
</mxfile>
